<svg fill="none" height="24" viewBox="0 0 24 24" width="24" xmlns="http://www.w3.org/2000/svg" xmlns:xlink="http://www.w3.org/1999/xlink"><filter id="a" color-interpolation-filters="sRGB" filterUnits="userSpaceOnUse" height="22" width="22" x="1" y="1.5"><feFlood flood-opacity="0" result="BackgroundImageFix"/><feColorMatrix in="SourceAlpha" result="hardAlpha" type="matrix" values="0 0 0 0 0 0 0 0 0 0 0 0 0 0 0 0 0 0 127 0"/><feOffset dy=".5"/><feGaussianBlur stdDeviation="1"/><feComposite in2="hardAlpha" operator="out"/><feColorMatrix type="matrix" values="0 0 0 0 0 0 0 0 0 0 0 0 0 0 0 0 0 0 0.25 0"/><feBlend in2="BackgroundImageFix" mode="normal" result="effect1_dropShadow_1701_945"/><feBlend in="SourceGraphic" in2="effect1_dropShadow_1701_945" mode="normal" result="shape"/></filter><g filter="url(#a)"><path clip-rule="evenodd" d="m3 9.41368c0 .2649.10511.51898.29225.70642l1.17206 1.1742c.38992.3907.38963 1.0233-.00065 1.4136l-1.17077 1.1708c-.18753.1875-.29289.4419-.29289.7071v5.4142c0 .5523.44771 1 1 1h5.41368c.2649 0 .51898-.1051.70642-.2922l1.1742-1.1721c.3907-.3899 1.0233-.3896 1.4136.0006l1.1708 1.1708c.1875.1875.4419.2929.7071.2929h5.4142c.5523 0 1-.4477 1-1v-5.4137c0-.2649-.1051-.519-.2922-.7064l-1.1721-1.1742c-.3899-.3907-.3896-1.0233.0006-1.4136l1.1708-1.1708c.1875-.18752.2929-.44187.2929-.70709v-5.41421c0-.55228-.4477-1-1-1h-5.4137c-.2649 0-.519.10511-.7064.29225l-1.1742 1.17206c-.3907.38992-1.0233.38963-1.4136-.00065l-1.1708-1.17077c-.18752-.18753-.44187-.29289-.70709-.29289h-5.41421c-.55228 0-1 .44772-1 1z" fill="#fff" fill-rule="evenodd"/></g><g fill="#294766"><path d="m6.80329 8.2-1.30329 1.30091-.5-.50091v-4h4l.5.5-1.30003 1.3 2.80003 2.78343-1.41658 1.41657z"/><path d="m17.1967 15.8 1.3033-1.3009.5.5009v4h-4l-.5-.5 1.3-1.3-2.8-2.7834 1.4166-1.4166z"/><path d="m15.8 6.80329-1.3009-1.30329.5009-.5h4v4l-.5.5-1.3-1.30003-2.7834 2.80003-1.4166-1.41658z"/><path d="m8.2 17.1967 1.30091 1.3033-.50091.5h-4v-4l.5-.5 1.3 1.3 2.78343-2.8 1.41657 1.4166z"/></g></svg>