<svg fill="none" height="22" viewBox="0 0 345 22" width="345" xmlns="http://www.w3.org/2000/svg"><g fill="#e00000"><path d="m10.2 19.44h.54v-19.020001h3.96v21.000001h-7.74l-2.46-19.02h-.54v19.02h-3.96v-21.000001h7.74z"/><path d="m38.2891 16.92h-7.14l-1.02 4.5h-4.14l5.01-21.000001h7.44l5.01 21.000001h-4.14zm-6.3-3.78h5.43l-2.43-10.74h-.54z"/><path d="m54.5283.419999h15.12v3.780001h-5.58v17.22h-3.96v-17.22h-5.58z"/><path d="m82.1074.419999h3.96v8.580001h6.78v-8.580001h3.96v21.000001h-3.96v-8.64h-6.78v8.64h-3.96z"/><path d="m120.397 16.92h-7.14l-1.02 4.5h-4.14l5.01-21.000001h7.44l5.01 21.000001h-4.14zm-6.3-3.78h5.43l-2.43-10.74h-.54z"/><path d="m137.476.419999h3.96v17.220001h9.54v3.78h-13.5z"/><path d="m164.545.419999h14.04v3.780001h-5.04v13.44h5.04v3.78h-14.04v-3.78h5.04v-13.44h-5.04z"/><path d="m192.214.419999h13.26v3.780001h-9.3v4.8h8.94v3.78h-8.94v4.86h9.66v3.78h-13.62z"/><path d="m245.152.419999h6.96l1.2 15.780001v3.06h.72v-3.06l1.2-15.780001h6.96v21.000001h-3.6v-14.04l.36-4.8h-.72l-1.56 18.84h-5.94l-1.62-18.84h-.72l.36 4.8v14.04h-3.6z"/><path d="m273.301 8.58c0-2.72.68-4.83 2.04-6.33 1.38-1.500001 3.28-2.25 5.7-2.25s4.31.749999 5.67 2.25c1.38 1.5 2.07 3.61 2.07 6.33v4.68c0 2.8-.69 4.93-2.07 6.39-1.36 1.46-3.25 2.19-5.67 2.19s-4.32-.73-5.7-2.19c-1.36-1.46-2.04-3.59-2.04-6.39zm7.74 9.66c.72 0 1.32-.11 1.8-.33.48-.24.87-.57 1.17-.99s.51-.92.63-1.5.18-1.22.18-1.92v-5.16c0-.66-.07-1.28-.21-1.86s-.36-1.08-.66-1.5-.69-.75-1.17-.99c-.48-.26-1.06-.39-1.74-.39s-1.26.13-1.74.39c-.48.24-.87.57-1.17.99s-.52.92-.66 1.5-.21 1.2-.21 1.86v5.16c0 .7.06 1.34.18 1.92s.33 1.08.63 1.5.69.75 1.17.99c.48.22 1.08.33 1.8.33z"/><path d="m300.851.419999h15.12v3.780001h-5.58v17.22h-3.96v-17.22h-5.58z"/><path d="m339.35 16.92h-7.14l-1.02 4.5h-4.14l5.01-21.000001h7.44l5.01 21.000001h-4.14zm-6.3-3.78h5.43l-2.43-10.74h-.54z"/></g></svg>